<?xml version="1.0" encoding="UTF-8" standalone="no"?>
<!DOCTYPE svg PUBLIC "-//W3C//DTD SVG 1.1//EN"
 "http://www.w3.org/Graphics/SVG/1.1/DTD/svg11.dtd">
<!-- Generated by graphviz version 2.40.1 (20161225.0304)
 -->
<!-- Title: dependencies Pages: 1 -->
<svg width="2431pt" height="284pt"
 viewBox="0.00 0.00 2431.00 284.00" xmlns="http://www.w3.org/2000/svg" xmlns:xlink="http://www.w3.org/1999/xlink">
<g id="graph0" class="graph" transform="scale(1 1) rotate(0) translate(4 280)">
<title>dependencies</title>
<polygon fill="#ffffff" stroke="transparent" points="-4,4 -4,-280 2427,-280 2427,4 -4,4"/>
<text text-anchor="start" x="1190.5091" y="-42.4" font-family="sans-serif" font-weight="bold" font-size="14.00" fill="#000000">Legend</text>
<polygon fill="#ffffb3" stroke="transparent" points="977.5,-10 977.5,-30 997.5,-30 997.5,-10 977.5,-10"/>
<text text-anchor="start" x="1001.129" y="-15.4" font-family="sans-serif" font-size="14.00" fill="#000000"> &#160;Declarations</text>
<polygon fill="#8dd3c7" stroke="transparent" points="1090.5,-10 1090.5,-30 1110.5,-30 1110.5,-10 1090.5,-10"/>
<text text-anchor="start" x="1114.2251" y="-15.4" font-family="sans-serif" font-size="14.00" fill="#000000"> &#160;Module</text>
<polygon fill="#80b1d3" stroke="transparent" points="1176.5,-10 1176.5,-30 1196.5,-30 1196.5,-10 1176.5,-10"/>
<text text-anchor="start" x="1200.2812" y="-15.4" font-family="sans-serif" font-size="14.00" fill="#000000"> &#160;Bootstrap</text>
<polygon fill="#fdb462" stroke="transparent" points="1273.5,-10 1273.5,-30 1293.5,-30 1293.5,-10 1273.5,-10"/>
<text text-anchor="start" x="1297.1732" y="-15.4" font-family="sans-serif" font-size="14.00" fill="#000000"> &#160;Providers</text>
<polygon fill="#fb8072" stroke="transparent" points="1369.5,-10 1369.5,-30 1389.5,-30 1389.5,-10 1369.5,-10"/>
<text text-anchor="start" x="1393.2258" y="-15.4" font-family="sans-serif" font-size="14.00" fill="#000000"> &#160;Exports</text>
<g id="clust1" class="cluster">
<title>cluster_AppModule</title>
<polygon fill="none" stroke="#000000" stroke-dasharray="1,5" points="8,-70 8,-268 1741,-268 1741,-70 8,-70"/>
</g>
<g id="clust2" class="cluster">
<title>cluster_AppModule_declarations</title>
<polygon fill="none" stroke="#000000" points="1268,-78 1268,-130 1733,-130 1733,-78 1268,-78"/>
</g>
<g id="clust6" class="cluster">
<title>cluster_AppModule_imports</title>
<polygon fill="none" stroke="#000000" points="1116,-78 1116,-130 1260,-130 1260,-78 1116,-78"/>
</g>
<g id="clust8" class="cluster">
<title>cluster_AppModule_bootstrap</title>
<polygon fill="none" stroke="#000000" points="906,-208 906,-260 1030,-260 1030,-208 906,-208"/>
</g>
<g id="clust9" class="cluster">
<title>cluster_AppModule_providers</title>
<polygon fill="none" stroke="#000000" points="16,-78 16,-130 1108,-130 1108,-78 16,-78"/>
</g>
<g id="clust16" class="cluster">
<title>cluster_DashboardPageModule</title>
<polygon fill="none" stroke="#000000" stroke-dasharray="1,5" points="1749,-70 1749,-195 1913,-195 1913,-70 1749,-70"/>
</g>
<g id="clust17" class="cluster">
<title>cluster_DashboardPageModule_declarations</title>
<polygon fill="none" stroke="#000000" points="1771,-78 1771,-130 1891,-130 1891,-78 1771,-78"/>
</g>
<g id="clust23" class="cluster">
<title>cluster_HomePageModule</title>
<polygon fill="none" stroke="#000000" stroke-dasharray="1,5" points="1921,-70 1921,-195 2057,-195 2057,-70 1921,-70"/>
</g>
<g id="clust24" class="cluster">
<title>cluster_HomePageModule_declarations</title>
<polygon fill="none" stroke="#000000" points="1942,-78 1942,-130 2036,-130 2036,-78 1942,-78"/>
</g>
<g id="clust30" class="cluster">
<title>cluster_RegistrationPageModule</title>
<polygon fill="none" stroke="#000000" stroke-dasharray="1,5" points="2065,-70 2065,-195 2237,-195 2237,-70 2065,-70"/>
</g>
<g id="clust31" class="cluster">
<title>cluster_RegistrationPageModule_declarations</title>
<polygon fill="none" stroke="#000000" points="2087,-78 2087,-130 2215,-130 2215,-78 2087,-78"/>
</g>
<g id="clust37" class="cluster">
<title>cluster_VerificationPageModule</title>
<polygon fill="none" stroke="#000000" stroke-dasharray="1,5" points="2245,-70 2245,-195 2415,-195 2415,-70 2245,-70"/>
</g>
<g id="clust38" class="cluster">
<title>cluster_VerificationPageModule_declarations</title>
<polygon fill="none" stroke="#000000" points="2267,-78 2267,-130 2393,-130 2393,-78 2267,-78"/>
</g>
<!-- AppComponent -->
<g id="node1" class="node">
<title>AppComponent</title>
<polygon fill="#ffffb3" stroke="#000000" points="1724.9399,-122 1619.0601,-122 1619.0601,-86 1724.9399,-86 1724.9399,-122"/>
<text text-anchor="middle" x="1672" y="-99.8" font-family="Times,serif" font-size="14.00" fill="#000000">AppComponent</text>
</g>
<!-- AppModule -->
<g id="node4" class="node">
<title>AppModule</title>
<polygon fill="#8dd3c7" stroke="#000000" points="1009.6571,-187 1006.6571,-191 985.6571,-191 982.6571,-187 926.3429,-187 926.3429,-151 1009.6571,-151 1009.6571,-187"/>
<text text-anchor="middle" x="968" y="-164.8" font-family="Times,serif" font-size="14.00" fill="#000000">AppModule</text>
</g>
<!-- AppComponent&#45;&gt;AppModule -->
<g id="edge1" class="edge">
<title>AppComponent&#45;&gt;AppModule</title>
<path fill="none" stroke="#000000" d="M1672,-122.0109C1672,-144.4852 1672,-180 1672,-180 1672,-180 1019.6698,-180 1019.6698,-180"/>
<polygon fill="#000000" stroke="#000000" points="1019.6698,-176.5001 1009.6698,-180 1019.6697,-183.5001 1019.6698,-176.5001"/>
</g>
<!-- FormControlDirective -->
<g id="node2" class="node">
<title>FormControlDirective</title>
<polygon fill="#ffffb3" stroke="#000000" points="1601.6951,-122 1460.3049,-122 1460.3049,-86 1601.6951,-86 1601.6951,-122"/>
<text text-anchor="middle" x="1531" y="-99.8" font-family="Times,serif" font-size="14.00" fill="#000000">FormControlDirective</text>
</g>
<!-- FormControlDirective&#45;&gt;AppModule -->
<g id="edge2" class="edge">
<title>FormControlDirective&#45;&gt;AppModule</title>
<path fill="none" stroke="#000000" d="M1531,-122.1289C1531,-142.5724 1531,-173 1531,-173 1531,-173 1019.8565,-173 1019.8565,-173"/>
<polygon fill="#000000" stroke="#000000" points="1019.8566,-169.5001 1009.8565,-173 1019.8565,-176.5001 1019.8566,-169.5001"/>
</g>
<!-- SuggestionBoxComponent -->
<g id="node3" class="node">
<title>SuggestionBoxComponent</title>
<polygon fill="#ffffb3" stroke="#000000" points="1442.392,-122 1275.608,-122 1275.608,-86 1442.392,-86 1442.392,-122"/>
<text text-anchor="middle" x="1359" y="-99.8" font-family="Times,serif" font-size="14.00" fill="#000000">SuggestionBoxComponent</text>
</g>
<!-- SuggestionBoxComponent&#45;&gt;AppModule -->
<g id="edge3" class="edge">
<title>SuggestionBoxComponent&#45;&gt;AppModule</title>
<path fill="none" stroke="#000000" d="M1359,-122.2667C1359,-140.5552 1359,-166 1359,-166 1359,-166 1019.8438,-166 1019.8438,-166"/>
<polygon fill="#000000" stroke="#000000" points="1019.8439,-162.5001 1009.8438,-166 1019.8438,-169.5001 1019.8439,-162.5001"/>
</g>
<!-- AppComponent  -->
<g id="node6" class="node">
<title>AppComponent </title>
<polygon fill="#80b1d3" stroke="#000000" points="1022.439,-252 913.561,-252 913.561,-216 1022.439,-216 1022.439,-252"/>
<text text-anchor="middle" x="968" y="-229.8" font-family="Times,serif" font-size="14.00" fill="#000000">AppComponent </text>
</g>
<!-- AppModule&#45;&gt;AppComponent  -->
<g id="edge5" class="edge">
<title>AppModule&#45;&gt;AppComponent </title>
<path fill="none" stroke="#000000" stroke-dasharray="1,5" d="M968,-187.1061C968,-187.1061 968,-205.991 968,-205.991"/>
<polygon fill="#000000" stroke="#000000" points="964.5001,-205.9909 968,-215.991 971.5001,-205.991 964.5001,-205.9909"/>
</g>
<!-- AppRoutingModule -->
<g id="node5" class="node">
<title>AppRoutingModule</title>
<polygon fill="#8dd3c7" stroke="#000000" points="1252.2744,-122 1249.2744,-126 1228.2744,-126 1225.2744,-122 1123.7256,-122 1123.7256,-86 1252.2744,-86 1252.2744,-122"/>
<text text-anchor="middle" x="1188" y="-99.8" font-family="Times,serif" font-size="14.00" fill="#000000">AppRoutingModule</text>
</g>
<!-- AppRoutingModule&#45;&gt;AppModule -->
<g id="edge4" class="edge">
<title>AppRoutingModule&#45;&gt;AppModule</title>
<path fill="none" stroke="#000000" d="M1188,-122.0091C1188,-138.0494 1188,-159 1188,-159 1188,-159 1019.8982,-159 1019.8982,-159"/>
<polygon fill="#000000" stroke="#000000" points="1019.8982,-155.5001 1009.8982,-159 1019.8981,-162.5001 1019.8982,-155.5001"/>
</g>
<!-- EventService -->
<g id="node7" class="node">
<title>EventService</title>
<ellipse fill="#fdb462" stroke="#000000" cx="1037" cy="-104" rx="62.5373" ry="18"/>
<text text-anchor="middle" x="1037" y="-99.8" font-family="Times,serif" font-size="14.00" fill="#000000">EventService</text>
</g>
<!-- EventService&#45;&gt;AppModule -->
<g id="edge6" class="edge">
<title>EventService&#45;&gt;AppModule</title>
<path fill="none" stroke="#000000" d="M992.1548,-116.8419C992.1548,-116.8419 992.1548,-140.5231 992.1548,-140.5231"/>
<polygon fill="#000000" stroke="#000000" points="988.6549,-140.523 992.1548,-150.5231 995.6549,-140.5231 988.6549,-140.523"/>
</g>
<!-- HttpService -->
<g id="node8" class="node">
<title>HttpService</title>
<ellipse fill="#fdb462" stroke="#000000" cx="899" cy="-104" rx="57.3185" ry="18"/>
<text text-anchor="middle" x="899" y="-99.8" font-family="Times,serif" font-size="14.00" fill="#000000">HttpService</text>
</g>
<!-- HttpService&#45;&gt;AppModule -->
<g id="edge7" class="edge">
<title>HttpService&#45;&gt;AppModule</title>
<path fill="none" stroke="#000000" d="M941.1654,-116.226C941.1654,-116.226 941.1654,-140.683 941.1654,-140.683"/>
<polygon fill="#000000" stroke="#000000" points="937.6655,-140.683 941.1654,-150.683 944.6655,-140.683 937.6655,-140.683"/>
</g>
<!-- RegistrationService -->
<g id="node9" class="node">
<title>RegistrationService</title>
<ellipse fill="#fdb462" stroke="#000000" cx="737" cy="-104" rx="87.3924" ry="18"/>
<text text-anchor="middle" x="737" y="-99.8" font-family="Times,serif" font-size="14.00" fill="#000000">RegistrationService</text>
</g>
<!-- RegistrationService&#45;&gt;AppModule -->
<g id="edge8" class="edge">
<title>RegistrationService&#45;&gt;AppModule</title>
<path fill="none" stroke="#000000" d="M737,-122.0091C737,-138.0494 737,-159 737,-159 737,-159 916.1676,-159 916.1676,-159"/>
<polygon fill="#000000" stroke="#000000" points="916.1677,-162.5001 926.1676,-159 916.1676,-155.5001 916.1677,-162.5001"/>
</g>
<!-- TransliterationService -->
<g id="node10" class="node">
<title>TransliterationService</title>
<ellipse fill="#fdb462" stroke="#000000" cx="535" cy="-104" rx="96.681" ry="18"/>
<text text-anchor="middle" x="535" y="-99.8" font-family="Times,serif" font-size="14.00" fill="#000000">TransliterationService</text>
</g>
<!-- TransliterationService&#45;&gt;AppModule -->
<g id="edge9" class="edge">
<title>TransliterationService&#45;&gt;AppModule</title>
<path fill="none" stroke="#000000" d="M535,-122.2667C535,-140.5552 535,-166 535,-166 535,-166 916.0887,-166 916.0887,-166"/>
<polygon fill="#000000" stroke="#000000" points="916.0887,-169.5001 926.0887,-166 916.0887,-162.5001 916.0887,-169.5001"/>
</g>
<!-- UserManagementService -->
<g id="node11" class="node">
<title>UserManagementService</title>
<ellipse fill="#fdb462" stroke="#000000" cx="312" cy="-104" rx="108.7651" ry="18"/>
<text text-anchor="middle" x="312" y="-99.8" font-family="Times,serif" font-size="14.00" fill="#000000">UserManagementService</text>
</g>
<!-- UserManagementService&#45;&gt;AppModule -->
<g id="edge10" class="edge">
<title>UserManagementService&#45;&gt;AppModule</title>
<path fill="none" stroke="#000000" d="M312,-122.1289C312,-142.5724 312,-173 312,-173 312,-173 916.2168,-173 916.2168,-173"/>
<polygon fill="#000000" stroke="#000000" points="916.2168,-176.5001 926.2168,-173 916.2168,-169.5001 916.2168,-176.5001"/>
</g>
<!-- ValidationService -->
<g id="node12" class="node">
<title>ValidationService</title>
<ellipse fill="#fdb462" stroke="#000000" cx="105" cy="-104" rx="80.5142" ry="18"/>
<text text-anchor="middle" x="105" y="-99.8" font-family="Times,serif" font-size="14.00" fill="#000000">ValidationService</text>
</g>
<!-- ValidationService&#45;&gt;AppModule -->
<g id="edge11" class="edge">
<title>ValidationService&#45;&gt;AppModule</title>
<path fill="none" stroke="#000000" d="M105,-122.0109C105,-144.4852 105,-180 105,-180 105,-180 916.0841,-180 916.0841,-180"/>
<polygon fill="#000000" stroke="#000000" points="916.0841,-183.5001 926.0841,-180 916.084,-176.5001 916.0841,-183.5001"/>
</g>
<!-- DashboardPage -->
<g id="node13" class="node">
<title>DashboardPage</title>
<polygon fill="#ffffb3" stroke="#000000" points="1882.8529,-122 1779.1471,-122 1779.1471,-86 1882.8529,-86 1882.8529,-122"/>
<text text-anchor="middle" x="1831" y="-99.8" font-family="Times,serif" font-size="14.00" fill="#000000">DashboardPage</text>
</g>
<!-- DashboardPageModule -->
<g id="node14" class="node">
<title>DashboardPageModule</title>
<polygon fill="#8dd3c7" stroke="#000000" points="1904.9032,-187 1901.9032,-191 1880.9032,-191 1877.9032,-187 1757.0968,-187 1757.0968,-151 1904.9032,-151 1904.9032,-187"/>
<text text-anchor="middle" x="1831" y="-164.8" font-family="Times,serif" font-size="14.00" fill="#000000">DashboardPageModule</text>
</g>
<!-- DashboardPage&#45;&gt;DashboardPageModule -->
<g id="edge12" class="edge">
<title>DashboardPage&#45;&gt;DashboardPageModule</title>
<path fill="none" stroke="#000000" d="M1831,-122.1061C1831,-122.1061 1831,-140.991 1831,-140.991"/>
<polygon fill="#000000" stroke="#000000" points="1827.5001,-140.9909 1831,-150.991 1834.5001,-140.991 1827.5001,-140.9909"/>
</g>
<!-- HomePage -->
<g id="node15" class="node">
<title>HomePage</title>
<polygon fill="#ffffb3" stroke="#000000" points="2027.9248,-122 1950.0752,-122 1950.0752,-86 2027.9248,-86 2027.9248,-122"/>
<text text-anchor="middle" x="1989" y="-99.8" font-family="Times,serif" font-size="14.00" fill="#000000">HomePage</text>
</g>
<!-- HomePageModule -->
<g id="node16" class="node">
<title>HomePageModule</title>
<polygon fill="#8dd3c7" stroke="#000000" points="2049.4734,-187 2046.4734,-191 2025.4734,-191 2022.4734,-187 1928.5266,-187 1928.5266,-151 2049.4734,-151 2049.4734,-187"/>
<text text-anchor="middle" x="1989" y="-164.8" font-family="Times,serif" font-size="14.00" fill="#000000">HomePageModule</text>
</g>
<!-- HomePage&#45;&gt;HomePageModule -->
<g id="edge13" class="edge">
<title>HomePage&#45;&gt;HomePageModule</title>
<path fill="none" stroke="#000000" d="M1989,-122.1061C1989,-122.1061 1989,-140.991 1989,-140.991"/>
<polygon fill="#000000" stroke="#000000" points="1985.5001,-140.9909 1989,-150.991 1992.5001,-140.991 1985.5001,-140.9909"/>
</g>
<!-- RegistrationPage -->
<g id="node17" class="node">
<title>RegistrationPage</title>
<polygon fill="#ffffb3" stroke="#000000" points="2206.6458,-122 2095.3542,-122 2095.3542,-86 2206.6458,-86 2206.6458,-122"/>
<text text-anchor="middle" x="2151" y="-99.8" font-family="Times,serif" font-size="14.00" fill="#000000">RegistrationPage</text>
</g>
<!-- RegistrationPageModule -->
<g id="node18" class="node">
<title>RegistrationPageModule</title>
<polygon fill="#8dd3c7" stroke="#000000" points="2228.6951,-187 2225.6951,-191 2204.6951,-191 2201.6951,-187 2073.3049,-187 2073.3049,-151 2228.6951,-151 2228.6951,-187"/>
<text text-anchor="middle" x="2151" y="-164.8" font-family="Times,serif" font-size="14.00" fill="#000000">RegistrationPageModule</text>
</g>
<!-- RegistrationPage&#45;&gt;RegistrationPageModule -->
<g id="edge14" class="edge">
<title>RegistrationPage&#45;&gt;RegistrationPageModule</title>
<path fill="none" stroke="#000000" d="M2151,-122.1061C2151,-122.1061 2151,-140.991 2151,-140.991"/>
<polygon fill="#000000" stroke="#000000" points="2147.5001,-140.9909 2151,-150.991 2154.5001,-140.991 2147.5001,-140.9909"/>
</g>
<!-- VerificationPage -->
<g id="node19" class="node">
<title>VerificationPage</title>
<polygon fill="#ffffb3" stroke="#000000" points="2385.3459,-122 2274.6541,-122 2274.6541,-86 2385.3459,-86 2385.3459,-122"/>
<text text-anchor="middle" x="2330" y="-99.8" font-family="Times,serif" font-size="14.00" fill="#000000">VerificationPage</text>
</g>
<!-- VerificationPageModule -->
<g id="node20" class="node">
<title>VerificationPageModule</title>
<polygon fill="#8dd3c7" stroke="#000000" points="2407.3961,-187 2404.3961,-191 2383.3961,-191 2380.3961,-187 2252.6039,-187 2252.6039,-151 2407.3961,-151 2407.3961,-187"/>
<text text-anchor="middle" x="2330" y="-164.8" font-family="Times,serif" font-size="14.00" fill="#000000">VerificationPageModule</text>
</g>
<!-- VerificationPage&#45;&gt;VerificationPageModule -->
<g id="edge15" class="edge">
<title>VerificationPage&#45;&gt;VerificationPageModule</title>
<path fill="none" stroke="#000000" d="M2330,-122.1061C2330,-122.1061 2330,-140.991 2330,-140.991"/>
<polygon fill="#000000" stroke="#000000" points="2326.5001,-140.9909 2330,-150.991 2333.5001,-140.991 2326.5001,-140.9909"/>
</g>
</g>
</svg>
